<svg xmlns="http://www.w3.org/2000/svg" viewBox="0 0 114.19 36.87"><defs><style>.cls-1{fill:#231f20;}.cls-2{fill:#fcce7b;}</style></defs><title>textsc</title><g id="Layer_2" data-name="Layer 2"><g id="Layer_1-2" data-name="Layer 1"><path class="cls-1" d="M109.39,22.8h-8.07V24H96.25V21.6H80.83V24H74.12V14.4h-2.4V9.6H61.25V12H56.48v-.93h.9V8.37h.9V0H46V1.8H44.53V0H37.06V.9h-1.3V0H20.55V1.8H19.05V0H11.58V1.8H9.27V.9H0v12H0v24H114.19V24h-4.8Z"/><path class="cls-2" d="M2.83,3.74h3.6v1.8H4.63v.9h2.7V10H2.83V8.24h2.7v-.9H2.83Z"/><path class="cls-2" d="M8.57,4.63h1.8v3.6h.9V4.63h1.8V10H8.57Z"/><path class="cls-2" d="M14.42,2.83h1.8v1.8H18v1.8h-1.8v1.8h2.7V10h-4.5Z"/><path class="cls-2" d="M25.18,10h-5.4V4.63h3.6V2.83h1.8Zm-1.8-1.8V6.44h-1.8v1.8Z"/><path class="cls-2" d="M28.17,2.83H30v2.7h-.9v2.7h-.9V10h-1.8V7.33h.9V4.63h.9Z"/><path class="cls-2" d="M31.13,2.83h1.8v1.8h-1.8Zm0,2.7h1.8V10h-1.8Z"/><path class="cls-2" d="M34.17,3.74h3.6v1.8H36v.9h2.7V10h-4.5V8.24h2.7v-.9h-2.7Z"/><path class="cls-2" d="M39.9,2.83h1.8v1.8h1.8v1.8H41.7v1.8h2.7V10H39.9Z"/><path class="cls-2" d="M50.66,10h-5.4V4.63h3.6V2.83h1.8Zm-1.8-1.8V6.44h-1.8v1.8Z"/><path class="cls-2" d="M53.65,2.83h1.8v2.7h-.9v2.7h-.9V10h-1.8V7.33h.9V4.63h.9Z"/><path class="cls-2" d="M2.84,13.63h4.8V16H5.24v1.2h3.6V22h-6v-2.4h3.6v-1.2H2.84Z"/><path class="cls-2" d="M10.47,13.75h7.08v4.68h-4.8v1.2h4.8V22H10.47Zm2.28,2.4v1.08h2.4V16.16Z"/><path class="cls-2" d="M19.21,14.83h6v2.4h-3.6v2.4h3.6V22h-6Z"/><path class="cls-2" d="M26.79,14.83h2.4v4.8h1.2v-4.8h2.4V22h-6Z"/><path class="cls-2" d="M34.59,14.83h6v3.6h-2.4v-1.2H37V22h-2.4Z"/><path class="cls-2" d="M42,12.44h2.4v2.4H42ZM42,16h2.4v6H42Z"/><path class="cls-2" d="M46.13,12.44h2.4v2.4h2.4v2.4h-2.4v2.4h3.6V22h-6Z"/><path class="cls-2" d="M53.5,14.83h2.4v3.6h2.4v-3.6h2.4v9.6H53.5V22h4.8v-1.2H53.5Z"/><path class="cls-2" d="M71.29,22h-2.4v-1.2h-1.2V22h-4.8V16h1.2v-3.6h4.8V16h-1.2v1.2h1.2v1.2h1.2v-1.2h1.2v2.4h-1.2v1.2h1.2Zm-3.6-2.4v-1.2h-1.2v-1.2h-1.2v2.4Zm0-4.8v-1.2h-1.2v1.2Z"/><path class="cls-2" d="M2.84,26.83h6v2.4H5.24v2.4h3.6V34h-6Z"/><path class="cls-2" d="M17.62,34h-7.2v-7.2h7.2Zm-2.4-2.4v-2.4h-2.4v2.4Z"/><path class="cls-2" d="M19.42,25.63h2.4v1.2h4.8V28h4.8v6H29v-3.6h-2.4V34h-2.4v-4.8h-2.4V34h-2.4Z"/><path class="cls-2" d="M32.84,25.63h2.4v1.2H40V28h4.8v6h-2.4v-3.6H40V34h-2.4v-4.8h-2.4V34h-2.4Z"/><path class="cls-2" d="M46.48,26.83h2.4v4.8h1.2v-4.8h2.4V34h-6Z"/><path class="cls-2" d="M54.28,25.63h2.4v1.2h4.8V34h-2.4v-4.8h-2.4V34h-2.4Z"/><path class="cls-2" d="M63.1,24.44h2.4v2.4H63.1Zm0,3.6h2.4v6H63.1Z"/><path class="cls-2" d="M67.24,26.83h6v2.4h-3.6v2.4h3.6V34h-6Z"/><path class="cls-2" d="M82,34h-7.2v-7.2h6v4.8H82Zm-3.6-2.4v-2.4h-1.2v2.4Z"/><path class="cls-2" d="M83.67,24.44h2.4v2.4h2.4v2.4h-2.4v2.4h3.6V34h-6Z"/><path class="cls-2" d="M91,24.44h2.4v2.4H91ZM91,28h2.4v6H91Z"/><path class="cls-2" d="M102.35,34h-7.2v-7.2h7.2Zm-2.4-2.4v-2.4h-2.4v2.4Z"/><path class="cls-2" d="M104.15,25.63h2.4v1.2h4.8V34H109v-4.8h-2.4V34h-2.4Z"/></g></g></svg>