<svg xmlns="http://www.w3.org/2000/svg" viewBox="0 0 71.43 39.27"><defs><style>.cls-1{fill:#231f20;}.cls-2{fill:#84bb6c;}</style></defs><title>textba</title><g id="Layer_2" data-name="Layer 2"><g id="Layer_1-2" data-name="Layer 1"><polygon class="cls-1" points="70.23 26.4 70.23 22.8 65.15 22.8 65.15 14.4 63.95 14.4 63.95 10.8 57.38 10.8 57.38 8.37 58.28 8.37 58.28 0 53.5 0 50.81 0 46.03 0 46.03 1.8 44.53 1.8 44.53 0 37.06 0 37.06 0.9 35.77 0.9 35.77 0 32.81 0 28.3 0 28.02 0 25.34 0 20.55 0 20.55 1.8 19.05 1.8 19.05 0 11.58 0 11.58 1.8 9.27 1.8 9.27 0.9 0 0.9 0 12.87 0 12.87 0 24 0 24.87 0 36.87 8.85 36.87 12.87 36.87 17.85 36.87 21.72 36.87 26.69 36.87 30.72 36.87 31.82 36.87 31.82 39.27 44.69 39.27 44.69 36.87 48.16 36.87 52.3 36.87 52.48 36.87 56.23 36.87 59.76 36.87 63.97 36.87 71.43 36.87 71.43 26.4 70.23 26.4"/><path class="cls-2" d="M2.83,3.74h3.6v1.8H4.64v.9h2.7V10H2.83V8.24h2.7v-.9H2.83Z"/><path class="cls-2" d="M8.57,4.63h1.8v3.6h.9V4.63h1.8V10H8.57Z"/><path class="cls-2" d="M14.42,2.83h1.8v1.8H18v1.8h-1.8v1.8h2.7V10h-4.5Z"/><path class="cls-2" d="M25.18,10h-5.4V4.63h3.6V2.83h1.8Zm-1.8-1.8V6.44h-1.8v1.8Z"/><path class="cls-2" d="M28.17,2.83H30v2.7h-.9v2.7h-.9V10h-1.8V7.33h.9V4.63h.9Z"/><path class="cls-2" d="M31.13,2.83h1.8v1.8h-1.8Zm0,2.7h1.8V10h-1.8Z"/><path class="cls-2" d="M34.17,3.74h3.6v1.8H36v.9h2.7V10h-4.5V8.24h2.7v-.9h-2.7Z"/><path class="cls-2" d="M39.9,2.83h1.8v1.8h1.8v1.8H41.7v1.8h2.7V10H39.9Z"/><path class="cls-2" d="M50.66,10h-5.4V4.63h3.6V2.83h1.8Zm-1.8-1.8V6.44h-1.8v1.8Z"/><path class="cls-2" d="M53.65,2.83h1.8v2.7h-.9v2.7h-.9V10h-1.8V7.33h.9V4.63h.9Z"/><path class="cls-2" d="M10,22H2.84v-9.6h2.4v2.4H10Zm-2.4-2.4v-2.4H5.24v2.4Z"/><path class="cls-2" d="M11.84,14.83h2.4v4.8h1.2v-4.8h2.4V22h-6Z"/><path class="cls-2" d="M19.53,13.63h4.8V16h-2.4v1.2h3.6V22h-6v-2.4h3.6v-1.2h-3.6Z"/><path class="cls-2" d="M27.1,12.44h2.4v2.4H27.1Zm0,3.6h2.4v6H27.1Z"/><path class="cls-2" d="M31.25,13.63h2.4v1.2h4.8V22h-2.4v-4.8h-2.4V22h-2.4Z"/><path class="cls-2" d="M40.12,13.75H47.2v4.68H42.4v1.2h4.8V22H40.12Zm2.28,2.4v1.08h2.4V16.16Z"/><path class="cls-2" d="M48.77,13.63h4.8V16h-2.4v1.2h3.6V22h-6v-2.4h3.6v-1.2h-3.6Z"/><path class="cls-2" d="M56.31,13.63h4.8V16h-2.4v1.2h3.6V22h-6v-2.4h3.6v-1.2h-3.6Z"/><path class="cls-2" d="M10,34H2.84v-7.2h6v4.8H10Zm-3.6-2.4v-2.4H5.24v2.4Z"/><path class="cls-2" d="M11.68,25.63h2.4v1.2h4.8V34h-2.4v-4.8h-2.4V34h-2.4Z"/><path class="cls-2" d="M27.88,34h-7.2v-7.2h6v4.8h1.2Zm-3.6-2.4v-2.4h-1.2v2.4Z"/><path class="cls-2" d="M29.53,24.44h2.4v7.2h1.19V34H29.53Z"/><path class="cls-2" d="M34.65,26.83h2.4v3.6h2.4v-3.6h2.4v9.6h-7.2V34h4.8v-1.2h-4.8Z"/><path class="cls-2" d="M43.65,24.44h2.4v2.4h2.4v2.4h-2.4v2.4h3.6V34h-6Z"/><path class="cls-2" d="M51,24.44h2.4v2.4H51ZM51,28h2.4v6H51Z"/><path class="cls-2" d="M55.13,26.83h6v2.4h-3.6v2.4h3.6V34h-6Z"/><path class="cls-2" d="M62.6,25.63h4.8V28H65v1.2h3.6V34h-6v-2.4h3.6v-1.2H62.6Z"/></g></g></svg>