<svg xmlns="http://www.w3.org/2000/svg" viewBox="0 0 90.62 39.27"><defs><style>.cls-1{fill:#231f20;}.cls-2{fill:#7fcdc3;}</style></defs><title>textai</title><g id="Layer_2" data-name="Layer 2"><g id="Layer_1-2" data-name="Layer 1"><polygon class="cls-1" points="77.87 22.92 77.87 24 74.16 24 70.29 24 69.36 24 69.36 22.8 67.97 22.8 67.97 16.8 66.78 16.8 66.78 9.6 58.71 9.6 58.71 12 56.48 12 56.48 11.07 57.38 11.07 57.38 8.37 58.28 8.37 58.28 0 53.5 0 50.81 0 46.03 0 46.03 1.8 44.53 1.8 44.53 0 37.06 0 37.06 0.9 35.77 0.9 35.77 0 32.8 0 28.3 0 28.02 0 25.34 0 20.55 0 20.55 1.8 19.05 1.8 19.05 0 11.58 0 11.58 1.8 9.27 1.8 9.27 0.9 0 0.9 0 12.87 0 12.87 0 21.6 0 24.87 0 36.87 4.16 36.87 8.07 36.87 13.02 36.87 17.02 36.87 20.46 36.87 24.69 36.87 29.21 36.87 33.21 36.87 34.43 36.87 38.47 36.87 39.6 36.87 43.54 36.87 43.54 39.27 56.41 39.27 56.41 36.87 61.29 36.87 65.29 36.87 70.29 36.87 74.16 36.87 77.87 36.87 81.96 36.87 90.62 36.87 90.62 22.92 77.87 22.92"/><path class="cls-2" d="M2.75,3.74h3.6v1.8H4.55v.9h2.7V10H2.75V8.24h2.7v-.9H2.75Z"/><path class="cls-2" d="M8.48,4.63h1.8v3.6h.9V4.63H13V10H8.48Z"/><path class="cls-2" d="M14.33,2.83h1.8v1.8h1.8v1.8h-1.8v1.8h2.7V10h-4.5Z"/><path class="cls-2" d="M25.09,10h-5.4V4.63h3.6V2.83h1.8Zm-1.8-1.8V6.44h-1.8v1.8Z"/><path class="cls-2" d="M28.08,2.83h1.8v2.7H29v2.7h-.9V10h-1.8V7.33h.9V4.63h.9Z"/><path class="cls-2" d="M31,2.83h1.8v1.8H31Zm0,2.7h1.8V10H31Z"/><path class="cls-2" d="M34.09,3.74h3.6v1.8h-1.8v.9h2.7V10h-4.5V8.24h2.7v-.9h-2.7Z"/><path class="cls-2" d="M39.81,2.83h1.8v1.8h1.8v1.8h-1.8v1.8h2.7V10h-4.5Z"/><path class="cls-2" d="M50.57,10h-5.4V4.63h3.6V2.83h1.8Zm-1.8-1.8V6.44H47v1.8Z"/><path class="cls-2" d="M53.56,2.83h1.8v2.7h-.9v2.7h-.9V10h-1.8V7.33h.9V4.63h.9Z"/><path class="cls-2" d="M10,22H2.75v-7.2h6v4.8H10Zm-3.6-2.4v-2.4H5.15v2.4Z"/><path class="cls-2" d="M11.6,14.83h6v3.6H15.2v-1.2H14V22H11.6Z"/><path class="cls-2" d="M19,12.44h2.4v2.4h2.4v2.4h-2.4v2.4H25V22H19Z"/><path class="cls-2" d="M26.39,12.44h2.4v2.4h-2.4Zm0,3.6h2.4v6h-2.4Z"/><path class="cls-2" d="M30.54,12.44h3.59v2.4H32.94V16h2.4v2.4h-2.4v4.8h-2.4Z"/><path class="cls-2" d="M36.81,12.44h2.4v2.4h-2.4Zm0,3.6h2.4v6h-2.4Z"/><path class="cls-2" d="M40.95,14.83h6v2.4h-3.6v2.4h3.6V22h-6Z"/><path class="cls-2" d="M48.47,12.44h2.4v2.4h-2.4Zm0,3.6h2.4v6h-2.4Z"/><path class="cls-2" d="M59.81,22h-7.2v-7.2h6v4.8h1.2Zm-3.6-2.4v-2.4H55v2.4Z"/><path class="cls-2" d="M61.46,12.44h2.4v7.2H65V22H61.46Z"/><path class="cls-2" d="M2.75,24.44h2.4v2.4H2.75Zm0,3.6h2.4v6H2.75Z"/><path class="cls-2" d="M6.9,25.63H9.3v1.2h4.8V34H11.7v-4.8H9.3V34H6.9Z"/><path class="cls-2" d="M15.77,24.44h2.4v2.4h2.4v2.4h-2.4v2.4h3.6V34h-6Z"/><path class="cls-2" d="M23.21,25.75h7.08v4.68h-4.8v1.2h4.8V34H23.21Zm2.28,2.4v1.08h2.4V28.16Z"/><path class="cls-2" d="M32,24.44h2.4v7.2h1.19V34H32Z"/><path class="cls-2" d="M37.18,24.44h2.4v7.2h1.19V34H37.18Z"/><path class="cls-2" d="M42.35,24.44h2.4v2.4h-2.4Zm0,3.6h2.4v6h-2.4Z"/><path class="cls-2" d="M53.49,36.44h-7.2V34h4.8v-1.2h-4.8v-7.2h4.8v-1.2h2.4Zm-2.4-6V28h-2.4v2.4Z"/><path class="cls-2" d="M55.29,25.75h7.08v4.68h-4.8v1.2h4.8V34H55.29Zm2.28,2.4v1.08H60V28.16Z"/><path class="cls-2" d="M64,25.63h2.4v1.2h4.8V34h-2.4v-4.8h-2.4V34H64Z"/><path class="cls-2" d="M73,26.83h6v2.4h-3.6v2.4H79V34H73Z"/><path class="cls-2" d="M80.62,25.75H87.7v4.68H82.9v1.2h4.8V34H80.62Zm2.28,2.4v1.08h2.4V28.16Z"/></g></g></svg>