<svg xmlns="http://www.w3.org/2000/svg" viewBox="0 0 90.14 39.27"><defs><style>.cls-1{fill:#231f20;}.cls-2{fill:#ec5f45;}</style></defs><title>textce</title><g id="Layer_2" data-name="Layer 2"><g id="Layer_1-2" data-name="Layer 1"><path class="cls-1" d="M76.58,22.8H72.43V21.27h2.22V12H67V10.92H57.38V8.37h.9V0H46V1.8h-1.5V0H37.06V.9h-1.3V0H20.55V1.8H19.05V0H11.58V1.8H9.27V.9H0v12H0v24H17.51v2.4H30.38v-2.4H77.27v2.4H90.14V21.6H82.07v1.2h-4.8"/><path class="cls-2" d="M2.83,3.74h3.6v1.8H4.63v.9h2.7V10H2.83V8.24h2.7v-.9H2.83Z"/><path class="cls-2" d="M8.57,4.63h1.8v3.6h.9V4.63h1.8V10H8.57Z"/><path class="cls-2" d="M14.42,2.83h1.8v1.8H18v1.8h-1.8v1.8h2.7V10h-4.5Z"/><path class="cls-2" d="M25.18,10h-5.4V4.63h3.6V2.83h1.8Zm-1.8-1.8V6.44h-1.8v1.8Z"/><path class="cls-2" d="M28.17,2.83H30v2.7h-.9v2.7h-.9V10h-1.8V7.33h.9V4.63h.9Z"/><path class="cls-2" d="M31.13,2.83h1.8v1.8h-1.8Zm0,2.7h1.8V10h-1.8Z"/><path class="cls-2" d="M34.17,3.74h3.6v1.8H36v.9h2.7V10h-4.5V8.24h2.7v-.9h-2.7Z"/><path class="cls-2" d="M39.9,2.83h1.8v1.8h1.8v1.8H41.7v1.8h2.7V10H39.9Z"/><path class="cls-2" d="M50.66,10h-5.4V4.63h3.6V2.83h1.8Zm-1.8-1.8V6.44h-1.8v1.8Z"/><path class="cls-2" d="M53.65,2.83h1.8v2.7h-.9v2.7h-.9V10h-1.8V7.33h.9V4.63h.9Z"/><path class="cls-2" d="M2.84,14.83h6v2.4H5.24v2.4h3.6V22h-6Z"/><path class="cls-2" d="M17.62,22h-7.2v-7.2h7.2Zm-2.4-2.4v-2.4h-2.4v2.4Z"/><path class="cls-2" d="M19.42,13.63h2.4v1.2h4.8V16h4.8v6H29v-3.6h-2.4V22h-2.4v-4.8h-2.4V22h-2.4Z"/><path class="cls-2" d="M40,22h-4.8v2.4h-2.4V13.63h2.4v1.2H40Zm-2.4-2.4v-2.4h-2.4v2.4Z"/><path class="cls-2" d="M41.84,14.83h2.4v4.8h1.2v-4.8h2.4V22h-6Z"/><path class="cls-2" d="M49.64,12.44H52v2.4h2.4v2.4H52v2.4h3.6V22h-6Z"/><path class="cls-2" d="M57.08,13.75h7.08v4.68h-4.8v1.2h4.8V22H57.08Zm2.28,2.4v1.08h2.4V16.16Z"/><path class="cls-2" d="M65.81,14.83h6v3.6h-2.4v-1.2h-1.2V22h-2.4Z"/><path class="cls-2" d="M2.84,25.75H9.92v4.68H5.12v1.2h4.8V34H2.84Zm2.28,2.4v1.08h2.4V28.16Z"/><path class="cls-2" d="M11.59,25.63H14v1.2h4.8V34h-2.4v-4.8H14V34h-2.4Z"/><path class="cls-2" d="M27.55,36.44h-7.2V34h4.8v-1.2h-4.8v-7.2h4.8v-1.2h2.4Zm-2.4-6V28h-2.4v2.4Z"/><path class="cls-2" d="M29.3,24.44h2.4v2.4H29.3Zm0,3.6h2.4v6H29.3Z"/><path class="cls-2" d="M33.45,25.63h2.4v1.2h4.8V34h-2.4v-4.8h-2.4V34h-2.4Z"/><path class="cls-2" d="M42.32,25.75H49.4v4.68H44.6v1.2h4.8V34H42.32Zm2.28,2.4v1.08H47V28.16Z"/><path class="cls-2" d="M51.07,25.75h7.08v4.68h-4.8v1.2h4.8V34H51.07Zm2.28,2.4v1.08h2.4V28.16Z"/><path class="cls-2" d="M59.8,26.83h6v3.6H63.4v-1.2H62.2V34H59.8Z"/><path class="cls-2" d="M67.19,24.44h2.4v2.4h-2.4Zm0,3.6h2.4v6h-2.4Z"/><path class="cls-2" d="M71.34,25.63h2.4v1.2h4.8V34h-2.4v-4.8h-2.4V34h-2.4Z"/><path class="cls-2" d="M87.31,36.44h-7.2V34h4.8v-1.2h-4.8v-7.2h4.8v-1.2h2.4Zm-2.4-6V28h-2.4v2.4Z"/></g></g></svg>